<svg t="1725102881246" class="icon" viewBox="0 0 1208 1024" version="1.1" xmlns="http://www.w3.org/2000/svg" p-id="2116" width="32" height="32"><path d="M1108.385376 539.267471a485.030459 485.030459 0 0 0-89.379078-229.704229h2.085512C1048.799324 271.130239 1073.229605 22.358474 993.384296 1.205426c-52.137795-13.108931-148.965129 83.420472-196.336039 157.903036a675.407894 675.407894 0 0 0-202.890506-29.793025h-2.383442A639.656263 639.656263 0 0 0 387.990013 162.981556C340.619102 88.201061 242.897978-10.711784 190.164322 1.205426c-79.547379 19.961327-55.117098 268.137232-25.919932 305.676444a16.386164 16.386164 0 0 0 5.660674 4.171024 471.623598 471.623598 0 0 0-92.65631 227.022856C23.323378 910.786502 277.755818 1021.318628 591.774309 1021.616558h2.383442c313.720561-0.29793 568.450931-110.830056 514.227625-482.349087z" fill="#FF8431" p-id="2117"></path><path d="M979.381574 54.832872c-33.070259-8.044117-117.384521 138.8355-106.063172 169.224386s100.104567 66.736378 120.661755 40.816446 19.663397-201.698784-14.598583-210.040832zM204.464974 54.832872c32.772328-8.044117 117.086591 138.8355 106.063172 169.224386S209.231858 290.793636 189.568461 264.873704s-18.173746-201.698784 14.896513-210.040832z" fill="#FFC7A1" p-id="2118"></path><path d="M761.594556 567.272915a978.105036 978.105036 0 0 1 353.941146 130.493453c-31.282677 246.686253-254.73037 325.041911-520.78209 325.339841h-2.383442c-270.520674 0.595861-497.2456-80.7391-521.973812-336.661191 75.674285-54.521237 311.93298-114.703149 351.855635-121.257615 0 0 92.65631-370.62524 173.395409-368.241798C685.92027 198.137326 761.594556 567.272915 761.594556 567.272915z" fill="#FFD9C0" p-id="2119"></path><path d="M761.594556 567.272915a978.105036 978.105036 0 0 1 353.941146 130.493453c-31.282677 246.686253-254.73037 325.041911-520.78209 325.339841h-2.383442c-270.520674 0.595861-497.2456-80.7391-521.973812-336.661191 75.674285-54.521237 311.93298-114.703149 351.855635-121.257615 0 0 92.65631-370.62524 173.395409-368.241798C685.92027 198.137326 761.594556 567.272915 761.594556 567.272915z" fill="#FFFFFF" opacity=".5" p-id="2120"></path><path d="M1201.637546 792.21026h-1.489651c-70.609471-20.855118-290.184071-29.793026-292.269583-29.793026a4.468954 4.468954 0 0 1-4.766884-5.064815 5.064814 5.064814 0 0 1 5.064815-4.766884c8.937908 0 222.851833 8.639977 294.653024 29.793026a5.362745 5.362745 0 0 1 3.575163 6.256536 5.064814 5.064814 0 0 1-4.766884 3.575163zM1201.935477 865.203173h-1.787582c-69.11982-25.622002-287.502699-48.562632-289.886141-48.860563a4.766884 4.766884 0 0 1-4.171023-5.362744 5.064814 5.064814 0 0 1 5.362744-4.468954c8.937908 0 221.660112 23.53649 292.269583 49.456423a4.766884 4.766884 0 0 1 2.681372 6.256535 4.468954 4.468954 0 0 1-4.468953 2.979303zM1175.419684 944.154691h-2.383442c-65.842587-33.368189-280.352372-80.44117-282.437885-81.03703a5.064814 5.064814 0 0 1-3.873093-5.958605 5.064814 5.064814 0 0 1 5.958605-3.575163c8.937908 1.787582 217.787018 47.966771 284.821326 81.63289a4.766884 4.766884 0 0 1 2.085512 6.554466 4.468954 4.468954 0 0 1-4.171023 2.383442zM6.043423 792.21026a4.766884 4.766884 0 0 1-5.362745-3.575163 4.766884 4.766884 0 0 1 3.277233-6.256536c71.801192-21.153048 285.715117-29.793026 294.950955-29.793026a5.064814 5.064814 0 0 1 5.064814 4.766884 5.064814 5.064814 0 0 1-4.766884 5.064815c-2.383442 0-221.660112 8.639977-292.567513 29.793026zM5.745493 865.203173a4.766884 4.766884 0 0 1-1.787582-9.533769c70.311541-25.919932 283.033745-48.264702 292.269583-49.456422a5.064814 5.064814 0 1 1 0 9.831698c-2.085512 0-220.468391 23.23856-289.886141 48.860562zM34.048867 924.789224A4.766884 4.766884 0 0 1 30.473704 924.789224a5.064814 5.064814 0 0 1 2.383442-6.554465c68.226029-31.282677 278.862721-70.013611 287.800629-71.503262a4.766884 4.766884 0 0 1 5.660675 3.873093 4.766884 4.766884 0 0 1-3.873094 5.660675c-2.383442 0-218.382879 39.922655-285.417186 70.907401z" fill="#51230F" p-id="2121"></path><path d="M710.946412 819.917774a4.766884 4.766884 0 0 0-6.554466-1.787582 89.379077 89.379077 0 0 1-50.946074 8.937908A56.308819 56.308819 0 0 1 596.541193 771.653072v-49.158493a4.766884 4.766884 0 0 0-4.766884-4.766884 4.766884 4.766884 0 0 0-4.766884 4.766884v49.158493a56.606749 56.606749 0 0 1-56.010888 55.415028 92.65631 92.65631 0 0 1-50.946074-8.937908 4.468954 4.468954 0 0 0-6.256536 1.787582 4.468954 4.468954 0 0 0 1.489651 6.554465 98.912846 98.912846 0 0 0 47.072981 10.427559h9.533768a68.821889 68.821889 0 0 0 59.586052-40.518515 67.928099 67.928099 0 0 0 59.586051 40.518515h9.235838a97.423194 97.423194 0 0 0 47.072981-10.427559 5.064814 5.064814 0 0 0 3.575163-6.554465z" fill="#FF8431" p-id="2122"></path><path d="M630.803173 701.341531c0 15.790304-37.837143 28.303374-37.837143 28.303375S554.830957 716.238044 554.830957 701.341531s16.982025-29.793026 38.135073-29.793026a34.26198 34.26198 0 0 1 37.837143 29.793026z" fill="#E53215" p-id="2123"></path><path d="M1089.615769 426.649834l-87.889425-2.681373a185.61055 185.61055 0 0 0-335.17154-27.111653 163.563711 163.563711 0 0 0-84.016333-19.365467 171.011968 171.011968 0 0 0-79.845309 16.982025 185.61055 185.61055 0 0 0-337.554982 31.580607L90.059755 423.372601v16.386164l70.013611 2.383442a176.374712 176.374712 0 0 0-5.362745 43.795748A185.908481 185.908481 0 1 0 510.141419 409.369879a153.732013 153.732013 0 0 1 72.397052-15.492374 151.050641 151.050641 0 0 1 76.568076 17.577885A185.908481 185.908481 0 1 0 1013.643554 489.215188a187.100202 187.100202 0 0 0-6.554466-48.562632l81.930821 2.383442z" p-id="2124"></path><path d="M340.917032 686.445018a200.209133 200.209133 0 1 1 199.911203-200.209133A200.507063 200.507063 0 0 1 340.917032 686.445018z m0-371.816961a171.607828 171.607828 0 1 0 171.607829 171.607828 171.905759 171.905759 0 0 0-171.607829-171.905758zM827.735073 689.424321a200.209133 200.209133 0 1 1 200.209133-200.209133 200.507063 200.507063 0 0 1-200.209133 200.209133z m0-371.816962a171.607828 171.607828 0 1 0 171.607828 171.607829 171.607828 171.607828 0 0 0-171.607828-171.607829z" fill="#FFB98A" p-id="2125"></path><path d="M858.123959 350.975548a131.685174 131.685174 0 0 0-4.468954 29.793026A98.912846 98.912846 0 0 1 933.798245 477.893838a94.741822 94.741822 0 0 1-1.787582 18.471676 125.726569 125.726569 0 0 0 29.793026 7.150326 146.283756 146.283756 0 0 0 2.383442-25.622002 129.599662 129.599662 0 0 0-106.063172-126.91829zM369.518337 350.975548a117.384521 117.384521 0 0 0-4.468954 29.793026A98.912846 98.912846 0 0 1 445.192622 477.893838a94.741822 94.741822 0 0 1-1.787581 18.471676 125.726569 125.726569 0 0 0 29.793026 7.150326A146.283756 146.283756 0 0 0 477.36909 477.893838a129.599662 129.599662 0 0 0-107.850753-126.91829z" fill="#545454" p-id="2126"></path></svg>